<?xml version="1.0" encoding="utf-8"?>
<!-- Generator: Adobe Illustrator 13.0.0, SVG Export Plug-In . SVG Version: 6.00 Build 14948)  -->
<!DOCTYPE svg PUBLIC "-//W3C//DTD SVG 1.1//EN" "http://www.w3.org/Graphics/SVG/1.1/DTD/svg11.dtd">
<svg version="1.1" id="Layer_1" xmlns="http://www.w3.org/2000/svg" xmlns:xlink="http://www.w3.org/1999/xlink" x="0px" y="0px"
	 width="500px" height="500px" viewBox="0 0 500 500" enable-background="new 0 0 500 500" xml:space="preserve">
<path d="M88.269,441.692c51.914-106.005,103.636-211.619,155.509-317.542c-10.402,0.485-20.334,1.829-29.917,4.762
	c-54.095,16.565-88.333,52.486-101.635,107.3c-8.504,35.048-3.251,68.95,13.755,100.865c1.015,1.903,1.035,3.292,0.04,5.161
	c-4.427,8.33-8.701,16.738-13.166,25.385c-7.682-10.782-13.818-22.048-18.674-33.992c-27.99-68.854-9.456-147.169,46.666-195.929
	c28.164-24.47,61.043-38.054,98.335-40.792c4.59-0.337,9.177-0.505,13.767-0.374c1.699,0.049,2.486-0.534,3.213-2.026
	c7.387-15.188,14.895-30.317,22.248-45.521c0.936-1.936,2.005-2.505,4.104-2.493c15.6,0.099,31.199,0.099,46.802,0.003
	c2.206-0.014,2.857,0.492,2.85,2.795c-0.097,21.821-0.04,43.641-0.096,65.462c-0.007,1.724,0.465,2.692,2.018,3.607
	c46.084,27.146,74.714,66.982,84.076,119.573c14.201,79.771-27.623,154.753-97.202,186.64
	c-31.473,14.422-64.438,18.501-98.613,12.676c-16.907-2.881-32.906-8.38-48.201-16.079c-1.914-0.963-2.144-1.646-1.16-3.566
	c3.393-6.621,6.599-13.342,9.738-20.085c0.804-1.729,1.368-2.207,3.279-1.221c79.93,41.297,175.888-0.604,201.525-86.335
	c17.74-59.336-2.912-121.194-52.122-158.206c-1.351-1.013-2.741-1.965-4.5-3.221c0,45.589,0,90.684,0,136.439
	c-3.343-3.138-6.238-5.838-9.114-8.561c-12.304-11.637-24.582-23.299-36.93-34.889c-1.363-1.281-1.909-2.551-1.906-4.431
	c0.059-32.253,0.043-64.505,0.043-96.758c0-0.898,0-1.796,0-2.695c-0.17-0.032-0.341-0.066-0.512-0.099
	c-19.484,46.268-38.973,92.537-58.436,138.742c0.767,0.692,1.46,0.421,2.083,0.421c18.088,0.02,36.177-0.027,54.265,0.07
	c2.195,0.013,2.699-0.573,2.65-2.696c-0.146-6.455-0.054-12.917-0.054-19.951c5.825,5.479,11.229,10.563,16.637,15.644
	c12.341,11.595,24.655,23.217,37.055,34.748c1.54,1.433,1.391,2.053-0.199,3.267c-17.945,13.683-35.839,27.438-53.743,41.173
	c-0.361,0.277-0.732,0.541-1.579,1.163c0-4.489,0-8.534,0-12.576c0-2.774-0.134-5.562,0.045-8.325
	c0.124-1.933-0.522-2.392-2.388-2.382c-13.303,0.076-26.604,0.042-39.907,0.042c-10.911,0-21.822,0.073-32.73-0.061
	c-2.246-0.027-3.308,0.619-4.225,2.703c-16.22,36.852-32.557,73.649-48.766,110.51c-0.97,2.207-2.12,2.825-4.414,2.774
	C128.79,442.378,108.795,442.058,88.269,441.692z"/>
<path d="M281.441,365.232c16.826-14.407,33.042-24.295,49.729-38.582c0,1.441,0,2.345,0,3.246c0,12.34-0.007,20.682,0.011,33.021
	c0,1.308,0.148,2.364-1.83,2.354C313.688,365.2,298.02,365.232,281.441,365.232z"/>
</svg>
