<svg id="Layer_1" data-name="Layer 1" xmlns="http://www.w3.org/2000/svg" viewBox="0 0 708.5954 708.59542">
  <title>bitcoin-crypto-001</title>
  <g>
    <path d="M753.19177,382.70836c-.24847-15.24566-2.28554-30.30341-4.91426-45.28057a343.158,343.158,0,0,0-13.46993-51.98355,354.77008,354.77008,0,0,0-72.618-122.95969,356.98767,356.98767,0,0,0-56.756-50.55A351.38166,351.38166,0,0,0,473.90543,53.895a324.21389,324.21389,0,0,0-42.38876-6.2987c-3.32279-.25059-6.62314-.79779-9.93383-1.20848H378.1856c-1.30107.17513-2.59716.41375-3.904.51591a366.93019,366.93019,0,0,0-60.648,9.66056A354.69121,354.69121,0,0,0,55.18962,317.18888,324.07875,324.07875,0,0,0,47.855,358.75456c-.52419,4.91886-.85529,9.8585-1.4003,14.77471-.24131,2.17615-.79522,4.3176-1.20724,6.47479v44.07527a10.56334,10.56334,0,0,1,1.19358,3.00755A333.50056,333.50056,0,0,0,55.706,485.71765a352.44763,352.44763,0,0,0,46.7949,107.77127,317.35584,317.35584,0,0,0,31.18254,40.85357c6.611,7.23392,13.28439,14.43265,20.28551,21.2836A337.07,337.07,0,0,0,195.904,690.26052a347.66622,347.66622,0,0,0,45.84934,27.39008,335.36057,335.36057,0,0,0,75.21777,27.16548q16.90293,3.80314,34.05235,6.47975c8.328,1.29326,16.798,1.67944,25.20783,2.43435,2.57423.231,5.16133.31839,7.73651.54091.35074.0303.6666.46483.99863.71219h29.15752a7.8647,7.8647,0,0,1,2.04654-.75764c3.58111-.2683,7.17439-.37526,10.7549-.64994a370.53369,370.53369,0,0,0,38.09091-4.97548,341.663,341.663,0,0,0,38.35594-9.36452A354.16134,354.16134,0,0,0,749.5638,455.60687c1.36925-8.77435,2.11569-17.65,3.00544-26.49352.38267-3.80418.38424-7.64569.62344-11.46617a6.16021,6.16021,0,0,1,.65019-1.70477V384.75064A7.47278,7.47278,0,0,1,753.19177,382.70836ZM607.71721,608.94585C548.13227,668.25678,475.39142,697.1849,391.374,694.96447c-80.016-2.11464-148.59744-32.59868-204.07356-90.29524-56.37723-58.63384-84.05217-129.44619-82.30249-210.79488,1.739-80.85,32.313-149.98358,90.4909-206.05218,55.02561-53.03052,121.51507-80.69888,197.94761-82.13175,82.26372-1.54226,153.64694,26.67868,212.43407,84.29286,58.75093,57.5788,87.52286,128.3765,88.75105,210.36652C693.36638,481.62083,665.20128,551.72605,607.71721,608.94585Z" transform="translate(-45.24746 -46.38786)"/>
    <path d="M542.79616,412.48345c-11.31306-9.22495-24.35255-14.9729-38.28158-18.86366-5.09475-1.42322-10.27407-2.54379-15.93534-3.92976,1.45595-.4986,2.39664-.8415,3.35019-1.14407,11.56836-3.67015,22.60965-8.463,32.61162-15.43168,15.05292-10.48783,25.17879-24.41847,29.23655-42.45288a96.57627,96.57627,0,0,0-.70915-44.55683c-3.6326-14.926-11.53228-27.0962-24.05916-36.11647A87.85992,87.85992,0,0,0,503.463,237.77163a189.87743,189.87743,0,0,0-42.46229-7.75421c-1.97254-.14819-3.93055-.48963-6.08014-.76526,0-9.824.00331-19.415-.00091-29.006-.00426-9.66569.01933-19.33205-.01573-28.98144H409.49267v34.37738c0,3.84213.039,7.68476-.011,11.52623-.04918,3.7776.22469,7.57651-.1754,11.3364H364.47734V171.23639H319.0807c0,3.9981,0,7.81133,0,11.62453v22.71369c0,3.84209.03127,7.68455-.00883,11.52627-.03957,3.78894.18253,7.59382-.175,11.66029H228.6391v42.18341h3.486c7.23221.00009,14.473-.21358,21.69359.0765a124.91012,124.91012,0,0,1,14.016,1.73043c5.90771.91493,9.37715,4.53631,10.76432,10.265.2385.985.48433,1.96926.68206,2.96275a85.58348,85.58348,0,0,1,1.159,16.82809q-.02366,100.684-.09611,201.36768c-.00844,4.55859-1.04453,9.15476-1.95863,13.66127a11.29617,11.29617,0,0,1-9.24833,9.26146,71.1318,71.1318,0,0,1-11.97554,1.89078c-8.23349.3477-16.48656.233-24.73163.30506-1.20757.01052-2.41535.00141-3.53869.00141-.75515,4.31785-.5881,39.49376.21959,42.14707H319.096v58.10609h45.41267V594.42455c0-3.84209-.01428-7.68426.00408-11.52627.01809-3.78563-.08337-7.57887.06461-11.281,6.51181-.672,42.32156-.419,44.97992.3409v57.6425h45.428V570.64443c3.129-.16127,5.919-.14173,8.66632-.4746,12.62522-1.5296,25.29542-2.8404,37.66507-5.94646,12.29061-3.08619,24.30337-6.92612,35.08708-13.8645a69.66808,69.66808,0,0,0,26.12657-29.89264,92.367,92.367,0,0,0,8.02618-34.35643c.6566-12.65056-.11008-25.23613-3.83934-37.502A72.6874,72.6874,0,0,0,542.79616,412.48345Zm-178.075-141.3769c1.19128-.06072,2.18206-.15435,3.17292-.1551,12.19382-.00985,24.39868-.32981,36.57832.08573,12.03808.41073,23.969,1.92369,35.5001,5.84546,13.52417,4.5996,22.009,13.65286,25.12179,27.61a72.62825,72.62825,0,0,1-.938,36.08836c-3.70872,13.09569-12.51382,21.34677-25.16319,25.77132a106.10515,106.10515,0,0,1-22.74,4.94428c-16.63617,1.96206-33.344,1.22272-50.029,1.34234a12.64757,12.64757,0,0,1-1.50292-.18825Zm114.30005,222.506c-4.41572,14.66138-14.08013,24.35042-28.53589,29.36406a116.76493,116.76493,0,0,1-26.39771,5.53122c-19.23743,1.99253-38.54547,1.34524-57.83269,1.44756a13.69565,13.69565,0,0,1-1.51793-.17931V414.86324c1.055-.06184,1.93292-.157,2.81091-.158,9.71679-.01076,19.43454-.08891,29.15007.022,6.38931.073,12.79317.19992,19.15913.70134,10.86842.856,21.68624,2.16439,32.19865,5.2846,9.63548,2.85977,18.0993,7.52233,24.29617,15.67962a46.09176,46.09176,0,0,1,8.61678,20.73491A80.0679,80.0679,0,0,1,479.02125,493.61251Z" transform="translate(-45.24746 -46.38786)"/>
  </g>
</svg>
